<?xml version="1.0" encoding="UTF-8" standalone="no" ?>
<!DOCTYPE svg PUBLIC "-//W3C//DTD SVG 20010904//EN"
    "http://www.w3.org/TR/2001/REC-SVG-20010904/DTD/svg10.dtd">
<svg
    xmlns="http://www.w3.org/2000/svg"
    width="3.33333in"
    height="3.33333in"
    viewBox="0 0 1000 1000"
>
  <path
        id="Selection #1"
        fill="none"
        stroke="black"
        stroke-width="1"
        d="M 0.00,0.00
           C 0.00,0.00 1000.00,0.00 1000.00,0.00
             1000.00,0.00 1000.00,1000.00 1000.00,1000.00
             1000.00,1000.00 0.00,1000.00 0.00,1000.00
             0.00,1000.00 0.00,0.00 0.00,0.00 Z"
    />
  <path
        id="Selection #2"
        fill="black"
        stroke="black"
        stroke-width="1"
        d="M 488.00,144.14
           C 488.00,144.14 509.00,144.14 509.00,144.14
             509.00,144.14 521.00,144.14 521.00,144.14
             548.13,144.04 578.50,154.46 599.00,172.29
             626.78,196.46 640.84,227.92 645.15,264.00
             645.15,264.00 647.00,285.00 647.00,285.00
             647.00,285.00 647.00,310.00 647.00,310.00
             647.00,310.00 645.13,329.00 645.13,329.00
             640.15,364.85 626.24,397.74 598.00,421.56
             577.52,438.84 547.80,448.96 521.00,449.00
             521.00,449.00 494.00,449.00 494.00,449.00
             485.98,448.90 474.90,446.78 467.00,444.99
             430.01,436.60 400.09,409.44 384.86,375.00
             375.92,354.78 372.41,333.84 370.91,312.00
             370.91,312.00 370.00,302.00 370.00,302.00
             369.67,273.60 374.00,237.38 387.32,212.00
             400.03,187.79 421.64,165.27 447.00,154.43
             460.95,148.46 473.22,146.57 488.00,144.14 Z
           M 92.00,153.00
           C 92.00,153.00 152.00,153.00 152.00,153.00
             152.00,153.00 152.00,263.00 152.00,263.00
             152.00,263.00 264.00,263.00 264.00,263.00
             264.00,263.00 264.00,153.00 264.00,153.00
             264.00,153.00 324.00,153.00 324.00,153.00
             324.00,153.00 324.00,441.00 324.00,441.00
             324.00,441.00 264.00,441.00 264.00,441.00
             264.00,441.00 264.00,313.00 264.00,313.00
             264.00,313.00 152.00,313.00 152.00,313.00
             152.00,313.00 152.00,441.00 152.00,441.00
             152.00,441.00 92.00,441.00 92.00,441.00
             92.00,441.00 92.00,153.00 92.00,153.00 Z
           M 693.00,153.00
           C 693.00,153.00 799.00,153.00 799.00,153.00
             830.57,153.00 855.45,150.68 883.00,170.04
             905.33,185.74 912.27,208.05 914.09,234.00
             914.49,239.73 915.24,241.48 914.96,248.00
             914.96,248.00 914.09,256.00 914.09,256.00
             912.20,283.44 906.03,307.68 881.00,323.19
             866.50,332.17 844.05,337.97 827.00,338.00
             827.00,338.00 807.00,338.00 807.00,338.00
             807.00,338.00 754.00,338.00 754.00,338.00
             754.00,338.00 754.00,441.00 754.00,441.00
             754.00,441.00 693.00,441.00 693.00,441.00
             693.00,441.00 693.00,153.00 693.00,153.00 Z
           M 497.00,196.14
           C 489.99,197.45 481.35,199.63 475.00,202.81
             437.58,221.52 430.94,264.56 431.00,302.00
             431.02,312.06 433.12,327.21 435.63,337.00
             443.63,368.22 467.53,396.59 502.00,397.00
             521.65,397.23 535.36,396.56 552.00,384.24
             576.49,366.12 585.95,332.29 586.00,303.00
             586.05,271.98 582.91,239.39 559.99,216.00
             552.41,208.27 544.31,202.82 534.00,199.36
             527.10,197.03 521.27,196.01 514.00,196.14
             514.00,196.14 497.00,196.14 497.00,196.14 Z
           M 754.00,288.00
           C 754.00,288.00 804.00,288.00 804.00,288.00
             814.88,287.87 828.63,286.32 838.00,280.53
             842.32,277.87 845.92,274.41 848.47,270.00
             855.69,257.53 856.07,233.62 849.10,221.00
             846.33,215.99 842.94,212.72 838.00,209.88
             828.56,204.44 823.10,204.80 813.00,203.83
             813.00,203.83 754.00,203.00 754.00,203.00
             754.00,203.00 754.00,288.00 754.00,288.00 Z
           M 92.00,554.00
           C 92.00,554.00 153.00,554.00 153.00,554.00
             153.00,554.00 153.00,790.00 153.00,790.00
             153.00,790.00 296.00,790.00 296.00,790.00
             296.00,790.00 296.00,842.00 296.00,842.00
             296.00,842.00 92.00,842.00 92.00,842.00
             92.00,842.00 92.00,554.00 92.00,554.00 Z
           M 331.00,554.00
           C 331.00,554.00 392.00,554.00 392.00,554.00
             392.00,554.00 392.00,842.00 392.00,842.00
             392.00,842.00 331.00,842.00 331.00,842.00
             331.00,842.00 331.00,554.00 331.00,554.00 Z
           M 423.00,554.00
           C 423.00,554.00 657.00,554.00 657.00,554.00
             657.00,554.00 657.00,605.00 657.00,605.00
             657.00,605.00 571.00,605.00 571.00,605.00
             571.00,605.00 571.00,842.00 571.00,842.00
             571.00,842.00 509.00,842.00 509.00,842.00
             509.00,842.00 509.00,605.00 509.00,605.00
             509.00,605.00 423.00,605.00 423.00,605.00
             423.00,605.00 423.00,554.00 423.00,554.00 Z
           M 693.00,554.00
           C 693.00,554.00 905.00,554.00 905.00,554.00
             905.00,554.00 905.00,605.00 905.00,605.00
             905.00,605.00 753.00,605.00 753.00,605.00
             753.00,605.00 753.00,666.00 753.00,666.00
             753.00,666.00 892.00,666.00 892.00,666.00
             892.00,666.00 892.00,716.00 892.00,716.00
             892.00,716.00 753.00,716.00 753.00,716.00
             753.00,716.00 753.00,790.00 753.00,790.00
             753.00,790.00 912.00,790.00 912.00,790.00
             912.00,790.00 912.00,842.00 912.00,842.00
             912.00,842.00 693.00,842.00 693.00,842.00
             693.00,842.00 693.00,554.00 693.00,554.00 Z"
    />
  <path
        id="Selection"
        fill="none"
        stroke="black"
        stroke-width="1"
        d="M 0.00,0.00
           C 0.00,0.00 1000.00,0.00 1000.00,0.00
             1000.00,0.00 1000.00,1000.00 1000.00,1000.00
             1000.00,1000.00 0.00,1000.00 0.00,1000.00
             0.00,1000.00 0.00,0.00 0.00,0.00 Z"
    />
</svg>
