<svg version="1.1" id="Layer_1" xmlns="http://www.w3.org/2000/svg" xmlns:xlink="http://www.w3.org/1999/xlink" x="0px" y="0px"
	 width="100%" viewBox="100 40 310 310" enable-background="new 0 0 416 416" xml:space="preserve">
	 <style>
        path {
            fill: white;	
        }
        @media (prefers-color-scheme: dark) {
            path { fill: white; }
        }
    </style>
	<rect width="416px" height="416px" fill="black" />
<!--<path opacity="1.000000" stroke="none" 
	d="
M247.689026,391.999878 
	C247.689621,375.179840 247.663818,358.859711 247.700592,342.539734 
	C247.726639,330.978210 251.069656,327.484558 262.536407,327.699066 
	C274.163940,327.916595 285.849121,326.564392 297.412994,328.531342 
	C307.399475,330.230011 314.342102,335.690643 315.960876,346.057465 
	C317.551514,356.244202 315.538177,365.355286 305.784332,371.130524 
	C305.366089,371.378143 305.018402,371.744934 304.636261,372.057465 
	C304.608490,373.494568 305.908691,373.464813 306.669067,373.887573 
	C320.164307,381.390503 324.084595,399.480072 314.861298,412.171326 
	C309.486664,419.566864 301.604889,422.007874 293.018799,422.248016 
	C282.036011,422.555206 271.038483,422.408722 260.048004,422.341278 
	C251.947281,422.291595 248.154190,418.694489 247.789490,410.482483 
	C247.523743,404.498596 247.706543,398.494751 247.689026,391.999878 
M299.485779,380.827393 
	C299.033112,380.616882 298.597931,380.349457 298.125183,380.204193 
	C286.364136,376.590607 274.312805,378.904266 262.394714,378.526947 
	C260.444000,378.465179 260.217957,380.303619 260.216736,381.858826 
	C260.210083,390.356598 260.219818,398.854431 260.257965,407.352112 
	C260.270935,410.234100 261.879517,411.604980 264.673279,411.607513 
	C273.337799,411.615326 282.019531,411.924103 290.661957,411.480560 
	C299.333527,411.035583 304.124969,407.215698 306.108154,400.382996 
	C308.279053,392.903595 306.104523,385.950653 299.485779,380.827393 
M270.610321,338.370697 
	C269.611816,338.371277 268.613312,338.366730 267.614838,338.373199 
	C260.667084,338.418213 260.236664,338.830841 260.180054,345.732422 
	C260.147278,349.726166 260.129272,353.720703 260.171906,357.714142 
	C260.293335,369.089966 258.971588,367.677094 269.937775,367.588043 
	C277.727509,367.524841 285.598419,368.625214 293.302521,366.715698 
	C300.494354,364.933197 303.860382,359.982544 303.726379,351.812988 
	C303.604401,344.376221 300.507690,340.706451 292.980743,339.112671 
	C285.892853,337.611877 278.712402,338.700317 270.610321,338.370697 
z"/>-->
<path opacity="1.000000" stroke="none" 
	d="
M216.033722,139.536774 
	C215.190063,127.596245 216.504059,116.388405 221.877655,106.097618 
	C230.543228,89.502464 245.045502,83.183701 263.015076,84.823853 
	C279.145752,86.296173 290.658417,94.786346 296.419220,110.208496 
	C301.978088,125.090187 302.193756,140.277985 297.019257,155.198730 
	C290.449707,174.142212 276.075836,183.031815 254.705154,182.321640 
	C237.944000,181.764648 223.804535,170.236206 218.673370,152.673492 
	C217.467865,148.547348 216.944962,144.221771 216.033722,139.536774 
M237.149429,105.669724 
	C226.548935,121.041687 226.495163,137.593002 232.994690,154.165604 
	C237.806458,166.434692 247.243607,171.417984 260.853577,170.752121 
	C272.990753,170.158310 280.500763,163.175522 284.455597,152.303589 
	C288.912750,140.050903 289.184662,127.505501 284.695862,115.163254 
	C277.065399,94.182945 253.240402,89.180824 237.149429,105.669724 
z"/>
<path opacity="1.000000" stroke="none" 
	d="
M187.354156,123.211517 
	C187.559875,112.647240 187.583405,102.484535 187.669739,92.322357 
	C187.717255,86.730606 189.452850,84.677559 193.918564,84.707901 
	C198.248154,84.737312 200.211716,86.971336 200.221481,92.452103 
	C200.269562,119.445984 200.268234,146.440063 200.209808,173.433914 
	C200.197739,179.000015 198.300812,181.199097 193.994919,181.273453 
	C189.449203,181.351944 187.685043,179.167603 187.663773,173.201233 
	C187.625763,162.537033 187.531982,151.870544 187.716782,141.209427 
	C187.780823,137.514572 186.554230,136.249222 182.828949,136.296967 
	C169.500748,136.467819 156.165985,136.523514 142.840256,136.274017 
	C138.282883,136.188705 137.179413,137.944458 137.273926,142.157623 
	C137.509293,152.649994 137.299850,163.151566 137.369324,173.648788 
	C137.396545,177.762802 136.533905,181.016647 131.604355,181.271896 
	C127.231529,181.498337 124.869255,179.196747 124.852264,173.966187 
	C124.763458,146.639221 124.786041,119.311821 124.820984,91.984634 
	C124.826271,87.853012 126.318703,84.773056 131.132843,84.717262 
	C135.529709,84.666306 137.309662,86.812843 137.335358,92.380356 
	C137.378433,101.711441 137.430923,111.043877 137.310974,120.373573 
	C137.270844,123.494957 138.240234,124.937202 141.573761,124.911697 
	C155.403229,124.805862 169.233917,124.869492 183.064072,124.835121 
	C184.527313,124.831490 186.114197,125.007469 187.354156,123.211517 
z"/>
<!--<path opacity="1.000000" stroke="none" 
	d="
M227.979065,406.054749 
	C229.799835,408.465515 231.484756,410.536652 232.994385,412.728485 
	C235.288055,416.058655 235.424805,419.417053 231.972382,421.973633 
	C228.588348,424.479614 225.293533,423.705597 222.809662,420.421997 
	C215.577805,410.861542 208.446884,401.224731 201.270950,391.621948 
	C197.606186,386.717804 193.929794,381.822327 189.922531,376.474335 
	C183.250961,383.197510 175.398056,388.229858 177.172043,399.393005 
	C178.075272,405.076782 177.319855,411.024445 177.310181,416.852844 
	C177.303619,420.797607 175.601898,423.183777 171.401306,423.295807 
	C167.277756,423.405792 165.307541,421.159607 164.886383,417.297363 
	C164.742584,415.978485 164.785248,414.636566 164.785126,413.305176 
	C164.782913,387.826599 164.786407,362.347992 164.791885,336.869415 
	C164.792130,335.703949 164.780670,334.536194 164.845581,333.373474 
	C165.070450,329.346344 166.755203,326.628601 171.222717,326.734192 
	C175.618851,326.838135 177.343643,329.417572 177.335663,333.571320 
	C177.314560,344.561981 177.338379,355.552765 177.344025,366.543488 
	C177.344849,368.150452 177.344131,369.757416 176.671021,370.132385 
	C184.047791,363.480591 191.605652,357.016418 198.748734,350.122467 
	C205.452911,343.652161 211.688354,336.698151 218.188889,330.014191 
	C221.949600,326.147339 225.725327,325.684845 228.556442,328.571869 
	C231.255692,331.324432 230.848267,334.902466 227.208054,338.598572 
	C218.911896,347.022156 210.658524,355.493378 202.154984,363.704163 
	C199.247391,366.511627 199.227158,368.567413 201.651932,371.663940 
	C210.478867,382.936310 219.079071,394.386169 227.979065,406.054749 
z"/>-->
<path opacity="1.000000" stroke="none" 
	d="
M329.108734,206.641098 
	C342.920685,206.648773 356.249084,206.714615 369.576538,206.630249 
	C373.538849,206.605164 376.627655,207.526291 377.060059,212.029205 
	C377.412659,215.700989 374.652985,218.044220 369.553802,218.096268 
	C357.226715,218.222107 344.895172,218.277878 332.570343,218.069641 
	C327.873230,217.990280 325.960205,219.540344 326.176849,224.412491 
	C326.493347,231.530365 326.258209,238.672760 326.258209,245.700211 
	C329.690216,247.030426 332.673828,246.499481 335.635590,246.358414 
	C345.794006,245.874557 355.945526,246.052307 366.096405,246.625504 
	C369.499725,246.817703 371.342407,248.348053 371.309174,251.900284 
	C371.273621,255.697357 369.197540,257.296936 365.628082,257.304962 
	C354.299377,257.330444 342.967651,257.482117 331.643402,257.262421 
	C327.544952,257.182953 326.019104,258.438171 326.181305,262.630585 
	C326.458099,269.783813 326.457184,276.962311 326.197235,284.116516 
	C326.036011,288.553375 327.882751,289.992706 332.083099,289.944702 
	C343.743530,289.811493 355.406586,289.906586 367.068604,289.914062 
	C368.234711,289.914825 369.403198,289.889435 370.566498,289.952026 
	C374.494934,290.163452 378.253326,290.993835 378.098389,295.935150 
	C377.943481,300.876221 374.254150,301.386200 370.235626,301.364777 
	C355.741791,301.287659 341.247101,301.377838 326.753143,301.313873 
	C317.843506,301.274536 313.871124,297.579559 313.801788,288.539276 
	C313.625488,265.549866 313.621368,242.557480 313.779175,219.567886 
	C313.845215,209.943771 317.844116,206.706635 329.108734,206.641098 
z"/>
<path opacity="1.000000" stroke="none" 
	d="
M382.223572,129.999527 
	C376.249084,138.710922 367.953552,142.185684 358.067078,142.331436 
	C350.074890,142.449265 342.076324,142.517914 334.087677,142.320374 
	C330.340454,142.227737 329.146118,143.629272 329.227264,147.281418 
	C329.419586,155.937057 329.331696,164.600220 329.269379,173.259720 
	C329.229553,178.791107 327.366852,181.161652 323.228790,181.271194 
	C318.870972,181.386551 316.837616,178.955536 316.823578,173.104691 
	C316.764893,148.623840 316.701874,124.142403 316.814331,99.661980 
	C316.862457,89.179604 320.650360,85.664375 331.135437,85.653809 
	C339.961914,85.644905 348.788879,85.598770 357.614746,85.675720 
	C380.267578,85.873222 392.561096,104.276421 384.319214,125.618195 
	C383.782135,127.008896 383.042084,128.321228 382.223572,129.999527 
M329.563599,99.272186 
	C329.488617,108.899666 329.415588,118.527153 329.337006,128.154602 
	C329.321899,130.007767 329.797394,131.605652 331.999420,131.567108 
	C342.107208,131.390213 352.298401,132.683395 362.293854,130.446487 
	C368.800079,128.990448 373.075928,123.088860 373.624847,115.689941 
	C374.260254,107.125610 371.445587,100.514099 364.642273,98.605095 
	C353.518646,95.483810 342.030334,96.406090 330.659668,97.829979 
	C330.400818,97.862404 330.189209,98.271980 329.563599,99.272186 
z"/>
<path opacity="1.000000" stroke="none" 
	d="
M257.636932,272.999878 
	C257.633179,256.336548 257.453552,240.170135 257.735077,224.011765 
	C257.818329,219.232162 256.142578,217.946014 251.688156,218.158096 
	C245.537140,218.450958 239.359634,218.293823 233.196075,218.183212 
	C228.081711,218.091431 225.556488,216.008087 225.748917,212.133331 
	C225.979416,207.492661 229.065033,206.611115 233.027054,206.623260 
	C253.356018,206.685623 273.685303,206.635620 294.014404,206.668320 
	C299.353455,206.676895 301.406647,208.399643 301.320679,212.563354 
	C301.221191,217.382477 297.860657,218.143372 294.100647,218.193863 
	C288.269531,218.272156 282.416412,218.520950 276.610718,218.130783 
	C271.617371,217.795197 269.968872,219.368256 270.029999,224.529053 
	C270.292450,246.688034 270.147339,268.851898 270.127655,291.014008 
	C270.125885,293.008301 270.163666,295.038055 269.824493,296.989014 
	C269.194092,300.614960 266.970490,302.522125 263.167267,302.284882 
	C259.228485,302.039215 257.650757,299.726318 257.654785,295.995209 
	C257.662903,288.496765 257.644684,280.998352 257.636932,272.999878 
z"/>
<path opacity="1.000000" stroke="none" 
	d="
M189.221329,295.881653 
	C188.459793,300.073059 186.039169,301.384644 182.356430,301.365021 
	C167.026169,301.283203 151.694611,301.396484 136.364944,301.269257 
	C129.930984,301.215912 126.733261,298.084442 125.606422,291.733429 
	C124.812691,287.259857 124.983620,282.769348 124.980522,278.277283 
	C124.966515,257.947388 124.959702,237.617462 125.005646,217.287689 
	C125.010887,214.970032 125.242981,212.635300 125.582603,210.339966 
	C126.136360,206.597427 128.766449,205.507629 132.128448,205.744431 
	C135.454697,205.978683 137.321625,207.790741 137.339966,211.218704 
	C137.377426,218.217102 137.387695,225.215714 137.388397,232.214233 
	C137.390045,248.378143 137.381714,264.542053 137.372635,280.705963 
	C137.367920,289.085358 137.980530,289.693878 146.528305,289.695648 
	C158.192993,289.698059 169.857666,289.701050 181.522354,289.693939 
	C185.545395,289.691498 188.910782,290.540100 189.221329,295.881653 
z"/>
<path opacity="1.000000" stroke="none" 
	d="
M213.333069,270.000061 
	C213.330185,278.654480 213.274475,286.809326 213.344986,294.963074 
	C213.382111,299.255066 211.885391,302.122314 207.183060,302.288696 
	C203.080551,302.433899 200.783997,300.075226 200.771072,295.163300 
	C200.698914,267.704865 200.699554,240.246033 200.773834,212.787598 
	C200.787109,207.881012 203.081848,205.548859 207.215118,205.732513 
	C211.879456,205.939774 213.373138,208.765244 213.358200,213.085037 
	C213.293152,231.889847 213.331741,250.695023 213.333069,270.000061 
z"/>
</svg>