<?xml version="1.0" encoding="utf-8"?>
<svg viewBox="0 0 500 500" xmlns="http://www.w3.org/2000/svg">
  <style>
  path {
    fill:black;
  }
  rect {
    fill:white;
  }
  </style>
  <rect width="500px" height="500px" />
  <path d="M 162.721 138.82 L 162.721 125.72 L 164.455 125.72 L 164.455 131.1 L 171.264 131.1 L 171.264 125.72 L 172.997 125.72 L 172.997 138.82 L 171.264 138.82 L 171.264 132.646 L 164.455 132.646 L 164.455 138.82 Z M 175.355 132.44 Q 175.355 129.179 177.107 127.333 Q 178.858 125.488 181.628 125.488 Q 183.442 125.488 184.899 126.355 Q 186.355 127.222 187.119 128.772 Q 187.883 130.322 187.883 132.288 Q 187.883 134.281 187.079 135.853 Q 186.275 137.426 184.8 138.235 Q 183.326 139.043 181.619 139.043 Q 179.77 139.043 178.313 138.15 Q 176.857 137.256 176.106 135.71 Q 175.355 134.165 175.355 132.44 Z M 177.143 132.467 Q 177.143 134.835 178.416 136.197 Q 179.689 137.56 181.61 137.56 Q 183.567 137.56 184.832 136.184 Q 186.096 134.808 186.096 132.279 Q 186.096 130.68 185.555 129.487 Q 185.015 128.294 183.974 127.637 Q 182.933 126.98 181.637 126.98 Q 179.796 126.98 178.469 128.245 Q 177.143 129.509 177.143 132.467 Z M 190.117 138.82 L 190.117 125.72 L 195.058 125.72 Q 196.363 125.72 197.051 125.846 Q 198.016 126.006 198.668 126.458 Q 199.321 126.909 199.718 127.722 Q 200.116 128.535 200.116 129.509 Q 200.116 131.18 199.053 132.337 Q 197.989 133.494 195.21 133.494 L 191.851 133.494 L 191.851 138.82 Z M 191.851 131.949 L 195.237 131.949 Q 196.917 131.949 197.623 131.323 Q 198.329 130.698 198.329 129.563 Q 198.329 128.741 197.913 128.155 Q 197.498 127.57 196.819 127.383 Q 196.381 127.266 195.201 127.266 L 191.851 127.266 Z" transform="matrix(11.067912, 0, 0, 12.021024, -1755.793091, -1447.360962)" style="white-space: pre;"/>
  <path transform="matrix(11.067912, 0, 0, 12.021024, -1755.793091, -1447.360962)" style="white-space: pre;"/>
  <path d="M 162.596 157.12 L 162.596 144.02 L 164.33 144.02 L 164.33 155.574 L 170.781 155.574 L 170.781 157.12 Z M 173.14 157.12 L 173.14 144.02 L 174.873 144.02 L 174.873 157.12 Z M 181.262 157.12 L 181.262 145.566 L 176.946 145.566 L 176.946 144.02 L 187.33 144.02 L 187.33 145.566 L 182.996 145.566 L 182.996 157.12 Z M 189.143 157.12 L 189.143 144.02 L 198.615 144.02 L 198.615 145.566 L 190.877 145.566 L 190.877 149.578 L 198.123 149.578 L 198.123 151.115 L 190.877 151.115 L 190.877 155.574 L 198.919 155.574 L 198.919 157.12 Z" transform="matrix(11.067912, 0, 0, 12.021024, -1755.793091, -1447.360962)" style="white-space: pre;"/>
</svg>
